<?xml version="1.0" encoding="UTF-8"?>
<svg version="1.1" xmlns="http://www.w3.org/2000/svg" width="275" height="229">
<path d="M0 0 C1.04590805 0.00222061 2.0918161 0.00444122 3.16941833 0.00672913 C4.35056717 0.00680466 5.531716 0.00688019 6.74865723 0.00695801 C8.03404892 0.01211929 9.31944061 0.01728058 10.64378357 0.02259827 C12.60601112 0.02472069 12.60601112 0.02472069 14.60787964 0.02688599 C18.09150591 0.03071042 21.57509071 0.04054005 25.05870056 0.05158997 C28.6111444 0.06180569 32.16359491 0.06638395 35.71604919 0.07142639 C42.69067564 0.0821624 49.66527449 0.09923792 56.63987732 0.12025452 C60.89331886 8.4086233 64.85833272 16.68987419 68.26487732 25.37025452 C70.75954217 31.69730304 73.42915433 37.81215287 76.52415466 43.86976624 C77.9279328 46.70128196 79.05903537 49.58929931 80.13987732 52.55775452 C81.99009672 57.49358827 84.03584307 62.26440727 86.25706482 67.04212952 C87.97497745 70.86618363 89.55870943 74.73808578 91.13987732 78.62025452 C93.50177003 84.4160594 95.95003838 90.15022431 98.59690857 95.82337952 C101.63987732 102.5247489 101.63987732 102.5247489 101.63987732 106.12025452 C102.95987732 106.12025452 104.27987732 106.12025452 105.63987732 106.12025452 C105.84024597 105.25195007 105.84024597 105.25195007 106.04466248 104.36610413 C107.02375749 100.67180757 108.55701856 97.20992932 110.01487732 93.68275452 C110.31909607 92.93187561 110.62331482 92.1809967 110.93675232 91.40736389 C112.57883578 87.41794318 114.40954946 83.81918624 116.63987732 80.12025452 C117.513027 77.96932483 118.34491923 75.80129338 119.13987732 73.62025452 C120.65454885 69.46461725 122.37106009 65.90161657 124.63987732 62.12025452 C125.513027 59.96932483 126.34491923 57.80129338 127.13987732 55.62025452 C128.65454885 51.46461725 130.37106009 47.90161657 132.63987732 44.12025452 C133.513027 41.96932483 134.34491923 39.80129338 135.13987732 37.62025452 C136.65440807 33.46500349 138.36665109 29.8991241 140.63987732 26.12025452 C141.5363859 23.97076213 142.3890976 21.80259758 143.20237732 19.62025452 C144.64586832 15.77094519 146.0970893 11.93101203 147.63987732 8.12025452 C148.29987732 8.12025452 148.95987732 8.12025452 149.63987732 8.12025452 C149.78425232 7.35712952 149.92862732 6.59400452 150.07737732 5.80775452 C150.63987732 3.12025452 150.63987732 3.12025452 151.63987732 0.12025452 C159.31524359 0.09712631 166.99060627 0.07933698 174.66599941 0.06844234 C178.22965154 0.06321456 181.79327989 0.05611883 185.35691833 0.04481506 C189.44993829 0.03191276 193.54293312 0.02702545 197.63597107 0.02259827 C199.56405861 0.01485634 199.56405861 0.01485634 201.53109741 0.00695801 C203.30282066 0.00684471 203.30282066 0.00684471 205.1103363 0.00672913 C206.67919838 0.00339821 206.67919838 0.00339821 208.27975464 0 C210.63987732 0.12025452 210.63987732 0.12025452 211.63987732 1.12025452 C211.78630704 3.0010084 211.86735293 4.88691931 211.92112732 6.77259827 C211.97720154 8.52733459 211.97720154 8.52733459 212.03440857 10.31752014 C212.06921326 11.55179749 212.10401794 12.78607483 212.13987732 14.05775452 C212.34962229 21.28618761 212.61511107 28.44372127 213.40794373 35.63270569 C213.86285824 40.5117836 213.93121719 45.41157519 214.07737732 50.30775452 C214.3914594 59.0894643 214.78723171 67.85755819 215.45237732 76.62025452 C215.51030457 77.5318634 215.56823181 78.44347229 215.62791443 79.38270569 C216.16669493 85.88711377 218.01895645 91.17592626 220.63987732 97.12025452 C220.96987732 98.11025452 221.29987732 99.10025452 221.63987732 100.12025452 C222.29987732 100.12025452 222.95987732 100.12025452 223.63987732 100.12025452 C225.05003357 101.55384827 225.05003357 101.55384827 226.70237732 103.55775452 C229.42979954 106.78729631 232.27878847 109.75490186 235.32737732 112.68275452 C244.19205137 121.48702193 244.71221584 130.06029091 245.13987732 142.10072327 C245.18048279 143.14996475 245.22108826 144.19920624 245.26292419 145.28024292 C245.3920055 148.62262658 245.51639016 151.96515984 245.63987732 155.30775452 C245.76368705 158.63248092 245.88863383 161.95714747 246.01683044 165.28170776 C246.0962855 167.34417925 246.17328495 169.40674748 246.24729919 171.46942139 C246.47813222 177.48566527 246.89722964 183.46291909 247.42149353 189.46047974 C247.83965568 194.5534271 247.8644375 199.63821045 247.88987732 204.74525452 C247.92081482 206.35593811 247.92081482 206.35593811 247.95237732 207.99916077 C247.95753357 209.02138733 247.96268982 210.04361389 247.96800232 211.09681702 C247.97734802 212.01543518 247.98669373 212.93405334 247.99632263 213.88050842 C247.8198822 214.98918274 247.8198822 214.98918274 247.63987732 216.12025452 C244.04376763 218.51766098 242.33895404 218.36013144 238.07737732 218.30775452 C236.92108826 218.3013092 235.76479919 218.29486389 234.57347107 218.28822327 C231.63987732 218.12025452 231.63987732 218.12025452 229.63987732 217.12025452 C229.16191281 214.03691487 228.82829012 211.03780041 228.57737732 207.93275452 C228.49358826 206.96241272 228.40979919 205.99207092 228.32347107 204.99232483 C227.56447541 195.5256329 227.29760041 186.05265697 227.03416443 176.56166077 C226.77587538 167.83227208 226.31062129 159.1401863 225.63987732 150.43275452 C225.55673279 149.334151 225.47358826 148.23554749 225.38792419 147.10365295 C224.97122134 141.52459353 224.97122134 141.52459353 223.63987732 136.12025452 C220.33987732 136.12025452 217.03987732 136.12025452 213.63987732 136.12025452 C212.82496727 142.24003947 212.61463316 147.90277722 213.03831482 154.04994202 C213.7042694 165.32248398 213.97552482 176.59250403 214.19749451 187.88148499 C214.26604763 191.30367662 214.34345399 194.72560278 214.42112732 198.14759827 C214.46592895 200.32857701 214.51021989 202.50956632 214.55393982 204.69056702 C214.58978683 206.22150497 214.58978683 206.22150497 214.62635803 207.78337097 C214.64322662 208.71970367 214.66009521 209.65603638 214.67747498 210.6207428 C214.70292892 211.85596176 214.70292892 211.85596176 214.72889709 213.11613464 C214.63987732 215.12025452 214.63987732 215.12025452 213.63987732 217.12025452 C210.86935551 218.04376179 209.07298974 218.28355036 206.20237732 218.30775452 C205.05962341 218.32902405 205.05962341 218.32902405 203.89378357 218.35072327 C201.3968615 218.09540541 199.83837421 217.28576101 197.63987732 216.12025452 C197.31955342 210.95404077 197.00817274 205.78734471 196.70237732 200.62025452 C196.65597107 199.83948547 196.60956482 199.05871643 196.56175232 198.25428772 C196.04808625 189.52463997 195.59077364 180.79976004 195.35472107 172.05775452 C195.33514847 171.34075378 195.31557587 170.62375305 195.29541016 169.88502502 C195.20598403 166.48756103 195.13042987 163.09067083 195.06980896 159.69252014 C194.93678422 148.75198534 194.93678422 148.75198534 192.63987732 138.12025452 C188.78956682 135.55338085 187.05417969 136.28736728 182.63987732 137.12025452 C181.4801863 140.59932758 181.51876103 143.22870646 181.53440857 146.90541077 C181.53737442 147.63260818 181.54034027 148.3598056 181.543396 149.10903931 C181.59573352 156.61306734 181.78725525 164.1144468 181.96409607 171.61634827 C182.03855276 174.90727211 182.11299394 178.19819603 182.18649101 181.48914146 C182.2633404 184.89155549 182.3459524 188.29368058 182.43894958 191.69569397 C182.54712218 195.66892972 182.63112823 199.64250341 182.71409607 203.61634827 C182.77013252 205.45669899 182.77013252 205.45669899 182.82730103 207.33422852 C182.85767204 209.02353233 182.85767204 209.02353233 182.88865662 210.7469635 C182.91308334 211.73937546 182.93751007 212.73178741 182.962677 213.75427246 C182.80289116 214.92543358 182.80289116 214.92543358 182.63987732 216.12025452 C179.17755238 218.42847115 177.72189416 218.3902644 173.63987732 218.37025452 C172.58800232 218.37541077 171.53612732 218.38056702 170.45237732 218.38587952 C167.63987732 218.12025452 167.63987732 218.12025452 164.63987732 216.12025452 C164.14573669 213.76454163 164.14573669 213.76454163 163.98362732 210.71009827 C163.91917419 209.53817932 163.85472107 208.36626038 163.78831482 207.15882874 C163.48043017 199.33578182 163.2994193 191.51000345 163.13987732 183.68275452 C162.90255286 170.45825973 162.90255286 170.45825973 162.13987732 157.25697327 C161.30514316 146.67671785 161.27717503 136.05379389 161.08763123 125.44642639 C161.03610101 122.63448394 160.9788867 119.82269982 160.92112732 117.01087952 C160.90076416 115.71419342 160.90076416 115.71419342 160.87998962 114.39131165 C160.9084744 110.11988674 160.9084744 110.11988674 159.63987732 106.12025452 C156.13747693 113.44785718 153.13136513 120.91421942 150.23191833 128.49378967 C148.61771395 132.68729313 146.92875269 136.80176474 145.01487732 140.87025452 C143.12019004 144.90110882 141.59580997 148.97321012 140.13987732 153.18275452 C138.38833532 158.21843776 136.36251199 162.85210717 133.88987732 167.56556702 C131.93249476 171.56596763 130.44819801 175.73299667 128.88987732 179.90150452 C127.74430034 182.85136524 126.48680135 185.69554096 125.13987732 188.55775452 C123.19138513 192.73571269 121.59205451 196.9536366 120.07737732 201.30775452 C115.27144057 215.03254569 115.27144057 215.03254569 110.63987732 218.12025452 C107.64378357 218.45619202 107.64378357 218.45619202 104.20237732 218.49525452 C103.06929138 218.52361389 101.93620544 218.55197327 100.76878357 218.58119202 C96.84941212 218.00380646 96.12693228 217.16169292 93.63987732 214.12025452 C92.29787548 211.54311554 91.25722056 208.87287432 90.21409607 206.16322327 C89.9034169 205.3832045 89.59273773 204.60318573 89.27264404 203.79953003 C88.28108138 201.30602216 87.30341119 198.80737702 86.32737732 196.30775452 C85.04566778 193.04882664 83.75754362 189.79250974 82.46409607 186.53822327 C82.14773193 185.74086761 81.8313678 184.94351196 81.50541687 184.12199402 C78.95487123 177.75865205 76.13342675 171.560517 73.1572113 165.38612366 C71.1999977 161.17346936 69.56149532 156.8744815 67.97581482 152.51087952 C66.86993847 149.70415242 65.67747975 147.00320336 64.40940857 144.26869202 C62.26056404 139.58955127 60.28758058 134.86124543 58.37815857 130.08119202 C58.09855286 129.38260071 57.81894714 128.6840094 57.53086853 127.96424866 C56.3727003 125.06576502 55.21752309 122.16615477 54.07029724 119.26332092 C53.22062736 117.11681137 52.36256917 114.97381655 51.50315857 112.83119202 C51.24480728 112.17089996 50.98645599 111.51060791 50.72027588 110.83030701 C49.47318038 107.30853859 49.47318038 107.30853859 46.63987732 105.12025452 C46.60229309 106.25285706 46.60229309 106.25285706 46.56394958 107.40834045 C46.44647708 110.89575546 46.32444953 114.38299761 46.20237732 117.87025452 C46.16306091 119.05748108 46.12374451 120.24470764 46.08323669 121.46791077 C45.88503876 127.04794488 45.63195395 132.60112954 45.13597107 138.16322327 C44.45404393 145.81122998 44.26834633 153.4694467 44.03440857 161.14173889 C43.86342123 166.30378759 43.64849976 171.42909816 43.13597107 176.56947327 C42.36581529 184.38705269 42.29132676 192.23952906 42.12229919 200.08900452 C41.78654973 211.7958914 41.78654973 211.7958914 39.63987732 217.12025452 C37.16717708 218.35660464 35.5282116 218.24719237 32.76292419 218.24964905 C31.24124634 218.25437729 31.24124634 218.25437729 29.68882751 218.25920105 C28.58986145 218.25717682 27.49089539 218.25515259 26.35862732 218.25306702 C25.23420227 218.25402374 24.10977722 218.25498047 22.95127869 218.25596619 C20.57062219 218.2566476 18.18996385 218.254796 15.80931091 218.25062561 C12.15513454 218.24527685 8.50108109 218.25057194 4.84690857 218.25697327 C2.53831455 218.25631248 0.2297206 218.2550313 -2.07887268 218.25306702 C-3.17783875 218.25509125 -4.27680481 218.25711548 -5.40907288 218.25920105 C-6.42352478 218.25604889 -7.43797668 218.25289673 -8.48316956 218.24964905 C-9.37870544 218.24885345 -10.27424133 218.24805786 -11.19691467 218.24723816 C-13.36012268 218.12025452 -13.36012268 218.12025452 -15.36012268 217.12025452 C-15.24068857 212.05217755 -15.11638057 206.98425048 -14.98780823 201.91639709 C-14.94484411 200.19702798 -14.90314731 198.47762667 -14.86280823 196.75819397 C-14.66499865 188.35983405 -14.46147274 180.01033487 -13.59425354 171.64930725 C-13.0511181 165.78242508 -12.95725016 159.8798475 -12.75465393 153.99330139 C-12.58123875 149.34996041 -12.35827098 144.74494753 -11.86012268 140.12416077 C-11.2503421 134.46505824 -11.05495805 128.80656075 -10.86012268 123.12025452 C-10.63682587 116.60329568 -10.29553058 110.1582596 -9.59645081 103.67494202 C-9.14866688 98.83443477 -9.02653935 93.97715572 -8.86012268 89.12025452 C-8.47207468 77.79500173 -8.47207468 77.79500173 -7.86012268 72.15541077 C-7.11281908 65.2262457 -6.98071144 58.27144177 -6.75465393 51.30970764 C-6.59208736 46.72701193 -6.41818653 42.18536091 -5.86012268 37.63197327 C-5.03003873 30.84757414 -4.97197823 24.00834743 -4.75465393 17.18275452 C-4.15882501 0.21190318 -4.15882501 0.21190318 0 0 Z " fill="#F8F8F8" transform="translate(22.360122680664063,8.879745483398438)"/>
<path d="M0 0 C19.47 0 38.94 0 59 0 C59 0.33 59 0.66 59 1 C57.96429619 1.00546844 57.96429619 1.00546844 56.90766907 1.01104736 C49.72106266 1.05285809 42.53509574 1.12219445 35.34887695 1.20751953 C32.66689575 1.23795509 29.98510248 1.25863532 27.30297852 1.27099609 C23.44764441 1.29240272 19.59331514 1.33904508 15.73828125 1.390625 C14.53915604 1.39185364 13.34003082 1.39308228 12.10456848 1.39434814 C5.56534821 1.43867377 5.56534821 1.43867377 -0.29614258 4.03808594 C-0.85841553 4.68551758 -1.42068848 5.33294922 -2 6 C-1.34 4.02 -0.68 2.04 0 0 Z " fill="#C2C2C2" transform="translate(174,9)"/>
<path d="M0 0 C2.64 0 5.28 0 8 0 C8 0.33 8 0.66 8 1 C6.63875 1.4021875 6.63875 1.4021875 5.25 1.8125 C2.28528037 2.89576294 0.3830246 3.98359457 -2 6 C-1.34 4.02 -0.68 2.04 0 0 Z " fill="#A9A9A9" transform="translate(174,9)"/>
</svg>
